<?xml version="1.0" encoding="UTF-8" standalone="no"?>
<svg
   xmlns:dc="http://purl.org/dc/elements/1.1/"
   xmlns:cc="http://creativecommons.org/ns#"
   xmlns:rdf="http://www.w3.org/1999/02/22-rdf-syntax-ns#"
   xmlns:svg="http://www.w3.org/2000/svg"
   xmlns="http://www.w3.org/2000/svg"
   xmlns:sodipodi="http://sodipodi.sourceforge.net/DTD/sodipodi-0.dtd"
   xmlns:inkscape="http://www.inkscape.org/namespaces/inkscape"
   sodipodi:docname="cre.svg"
   inkscape:version="1.0 (4035a4fb49, 2020-05-01)"
   id="svg8"
   version="1.1"
   viewBox="0 0 452.63388 148.05211"
   height="148.05211mm"
   width="452.63388mm">
  <defs
     id="defs2" />
  <sodipodi:namedview
     fit-margin-bottom="0"
     fit-margin-right="0"
     fit-margin-left="0"
     fit-margin-top="0"
     inkscape:window-maximized="1"
     inkscape:window-y="-11"
     inkscape:window-x="-11"
     inkscape:window-height="986"
     inkscape:window-width="1920"
     showgrid="false"
     inkscape:document-rotation="0"
     inkscape:current-layer="layer1"
     inkscape:document-units="mm"
     inkscape:cy="-61.956602"
     inkscape:cx="954.14355"
     inkscape:zoom="0.35355339"
     inkscape:pageshadow="2"
     inkscape:pageopacity="0.0"
     borderopacity="1.0"
     bordercolor="#666666"
     pagecolor="#ffffff"
     id="base" />
  <metadata
     id="metadata5">
    <rdf:RDF>
      <cc:Work
         rdf:about="">
        <dc:format>image/svg+xml</dc:format>
        <dc:type
           rdf:resource="http://purl.org/dc/dcmitype/StillImage" />
        <dc:title></dc:title>
      </cc:Work>
    </rdf:RDF>
  </metadata>
  <g
     transform="translate(35.192041,-90.202778)"
     id="layer1"
     inkscape:groupmode="layer"
     inkscape:label="Calque 1">
    <path
       transform="scale(0.26458333)"
       d="m 1093.5254,736.93555 -10.4336,0.2832 -10.4356,0.28125 -2.2304,4 c -3.3762,6.05019 -13.1794,29.32059 -18.7461,44.5 -4.9727,13.5594 -13.138,38.52256 -14.6895,45 h 19.1133 l 3.209,-11 3.0684,-10.5 20.5625,-0.26953 20.5625,-0.26953 3.0019,10.76953 2.9688,11.26953 h 18.6367 l -0.6582,-4.10938 c -1.7207,-10.76055 -19.2998,-58.84863 -29.2285,-79.95703 z m -10.3496,16.78711 c 7.0356,15.06436 12.8684,29.1987 16.0527,41.28711 h -16.0527 -16.0528 c 3.1843,-12.08838 9.0172,-26.22273 16.0528,-41.28711 z"
       style="opacity:1;fill:#000000;stroke-width:0.999999"
       id="path76" />
    <path
       transform="scale(0.26458333)"
       d="m 861.17773,411 -1.28515,2.75 C 843.18432,449.49336 815.86102,513.44266 815.01367,519 h 14.31836 13.47461 l 1.38086,-2.75 c 0.76003,-1.51253 2.45586,-5.78748 3.76758,-9.5 l 2.38476,-6.75 h 28.50977 28.50781 l 3.50977,9.25 3.73437,9.75 h 28.17578 c -1.93475,-7.71145 -25.6881,-63.68719 -41.92187,-98.75 L 896.57227,411 H 878.875 Z M 878.92578,431.25781 899.01953,479 h -40.18945 z"
       style="opacity:1;fill:#000000;stroke-width:0.999999"
       id="path42" />
    <path
       transform="scale(0.26458333)"
       d="m 418.68945,411 -1.25586,7.16406 4.42383,7.84766 v 46.98242 45.19531 h 27.50586 l 0.26758,-16.96289 0.26562,-16.72656 h 34.11719 l 9.24219,17 9.07226,16.68945 h 30.50977 c 0.003,-0.007 0.0195,-0.014 0.0195,-0.0215 0,-0.48646 -5.01057,-9.52672 -11.13476,-20.08789 l -11.13477,-19.20313 2.38477,-1.61523 c 11.882,-8.05032 18.43012,-23.56963 15.95117,-37.80469 -2.88488,-16.56627 -11.50858,-24.3758 -30.2793,-27.42187 -3.45864,-0.56126 -22.99265,-1.02357 -43.42383,-1.02735 z m 30.38282,20.35352 h 37.67382 a 15.21494,16.696916 0 0 1 15.21485,16.69726 15.21494,16.696916 0 0 1 -15.21485,16.69727 h -37.67382 z"
       style="opacity:1;fill:#000000;stroke-width:0.999999"
       id="path38" />
    <path
       sodipodi:nodetypes="ccsccccccccccccccccccccccc"
       transform="scale(0.26458333)"
       d="m 908.35742,737.25 c -3.0655,0.16211 -3.45791,0.32422 -4.60937,0.48633 -0.40422,0.41953 -1.0276,2.35643 -1.38477,4.30273 -0.6045,3.29356 -0.41951,3.64002 2.67188,5 l 3.32226,1.46094 v 3.5625 78.78711 h 69 V 830.5 v -7 -7 -0.53516 h -49.5 V 802.98242 790 h 19 19 v -7 -7 h -19 -19 V 764.01758 752.0625 h 48.5 V 737.25 Z"
       style="opacity:1;fill:#000000;stroke-width:0.999999"
       id="path88" />
    <path
       sodipodi:nodetypes="cssscccccccccccccccccccccc"
       transform="scale(0.26458333)"
       d="m 1274.1777,737 -14.8105,24.5 c -8.1457,13.475 -15.1659,24.5 -15.6016,24.5 -0.4357,0 -6.5095,-9.56249 -13.4961,-21.25 -6.9865,-11.68747 -13.7861,-22.71251 -15.1093,-24.5 l -1.793,-2.42383 h -22.9252 l -1.5485,8.01069 6.9639,3.12994 V 789.98438 831 h 8.4864 8.4863 l 0.2637,-32.25 0.2636,-32.25 24.2149,38.76367 h 12.9179 l 23.8672,-39.2207 0.2637,32.47851 0.2637,32.47852 h 8.4863 8.4863 v -47 -47 h -8.8398 z"
       style="opacity:1;fill:#000000;stroke-width:0.999999"
       id="path84" />
    <path
       transform="scale(0.26458333)"
       d="m 762.85742,737 v 15 h 30.11133 v 78.84961 h 18.78516 V 752 h 30.10351 v -15 z"
       style="opacity:1;fill:#000000;stroke:none;stroke-width:5.66929;stroke-linecap:round;paint-order:stroke fill markers"
       id="rect220" />
    <path
       sodipodi:nodetypes="ccccccccc"
       transform="scale(0.26458333)"
       d="m 553.77344,749.0957 v 14.84766 l 24.08203,-10.41797 v 77.55273 h 17.5 0.52148 v -93.38671 h -15.29297 z"
       style="opacity:1;fill:#000000;stroke-width:0.999999"
       id="path80" />
    <path
       sodipodi:nodetypes="cccsssccccccccccccccccc"
       id="path78"
       transform="scale(0.26458333)"
       d="m 416.09961,737 -1.37006,8.4298 6.12787,2.70497 v 40.76562 c 0,22.42129 0.2994,41.06698 0.66602,41.43359 0.36669,0.36658 4.64164,0.66602 9.5,0.66602 h 8.83398 V 812.5 794 h 19.5 19.5 v -7 -7 h -19.5 -19.5 v -14 -14 h 24.5 24.5 v -7.5 -7.5 h -36.3789 z"
       style="opacity:1;fill:#000000;stroke-width:0.999999" />
    <path
       transform="scale(0.26458333)"
       d="m 1056.4414,548.29688 a 82.200193,80.32673 0 0 0 -81.89452,80.32617 82.200193,80.32673 0 0 0 82.19922,80.32617 82.200193,80.32673 0 0 0 82.2012,-80.32617 82.200193,80.32673 0 0 0 -82.2012,-80.32617 82.200193,80.32673 0 0 0 -0.3047,0 z m 0.1563,31.15234 a 48.06771,49.174379 0 0 1 0.1484,0 48.06771,49.174379 0 0 1 48.0684,49.17383 48.06771,49.174379 0 0 1 -48.0684,49.17383 48.06771,49.174379 0 0 1 -48.0664,-49.17383 48.06771,49.174379 0 0 1 47.918,-49.17383 z"
       style="opacity:1;fill:#000000;stroke:none;stroke-width:10.3464;stroke-linecap:round;paint-order:stroke fill markers"
       id="path270" />
    <path
       transform="scale(0.26458333)"
       d="m 1157.8574,549.88281 v 78.08203 78.08204 l 17.25,-0.27344 17.25,-0.27344 0.2656,-26.78125 0.2676,-26.78125 11.7032,0.28125 11.7031,0.28125 17.4277,26.75 17.4297,26.75 h 19.8516 c 10.9183,0 19.8515,-0.21993 19.8515,-0.48828 0,-0.53016 -32.7172,-48.90953 -36.7402,-54.32813 -1.3539,-1.82362 -2.3045,-3.457 -2.1113,-3.63086 0.1931,-0.1737 3.1565,-1.72243 6.5859,-3.4414 7.3622,-3.69041 15.6833,-11.68791 19.4824,-18.72656 7.5307,-13.95228 7.7943,-33.5118 0.6465,-48.00391 -3.4219,-6.93785 -12.7903,-16.52957 -19.7852,-20.25781 -12.3007,-6.55627 -11.4575,-6.45791 -58.3281,-6.86719 z m 35,29.93946 20.25,0.35156 c 17.3571,0.30066 20.75,0.61499 23.75,2.20508 8.5271,4.51963 12.3594,10.9147 12.3594,20.62109 0,11.41757 -6.4955,19.57649 -17.459,21.92773 -2.7492,0.58961 -12.6263,1.07227 -21.9492,1.07227 h -16.9512 v -23.08984 z"
       style="opacity:1;fill:#000000;stroke-width:0.999999"
       id="path58" />
    <path
       transform="scale(0.26458333)"
       d="m 578.85742,549.88086 v 78.39258 c 0,43.1159 0.32462,78.71722 0.7207,79.11328 0.3961,0.39779 8.15859,0.58307 17.25,0.41601 l 16.5293,-0.30273 0.26758,-24.63086 0.26562,-24.63086 22.23438,-0.5 c 16.3999,-0.36884 23.79688,-0.9358 28.19727,-2.16211 21.5001,-5.99165 37.03516,-22.38281 40.43164,-42.6582 1.45315,-8.67458 1.37124,-12.99045 -0.41016,-21.40039 -2.08059,-9.82228 -5.75994,-16.71018 -13.06055,-24.44922 -6.53208,-6.92436 -12.20444,-10.59442 -22.13281,-14.32031 -5.5502,-2.08283 -7.562,-2.18769 -48.04297,-2.51953 z m 35,29.9375 19.75,0.35547 c 16.85768,0.30259 20.26259,0.62649 23.25,2.20898 10.71893,5.67787 14.43946,11.37751 14.43946,22.11719 0,10.58192 -3.68435,16.51455 -13.43946,21.63672 -4.21221,2.21178 -5.76301,2.3852 -24.25,2.68945 l -19.75,0.32422 v -24.66601 z"
       style="opacity:1;fill:#000000;stroke-width:0.999999"
       id="path56" />
    <path
       sodipodi:nodetypes="cccssssssssccssssssccc"
       transform="scale(0.26458333)"
       d="m 1435.8574,550 v 78 78 h 31.8242 c 35.4231,0 44.9096,-0.99251 58.1758,-6.08398 12.0115,-4.60993 19.8148,-9.74391 29.5117,-19.41602 10.1138,-10.08767 15.2016,-18.02404 19.2305,-30 2.4619,-7.31811 3.1333,-13.21027 3.1333,-23.5 0,-14.17882 -0.6714,-16.18189 -3.1333,-23.5 C 1567.4225,582.16585 1550.2339,564.30392 1529,556.11523 1515.2141,550.79884 1507.4732,550 1469.7266,550 Z m 35,29 12.75,0.0352 c 22.4131,0.0613 34.2556,3.55751 44.8692,13.25 10.6038,9.68379 15.3808,20.62235 15.3808,35.21484 0,15.66357 -6.719,29.52956 -18.7285,38.65039 -7.5338,5.72175 -14.6159,8.4551 -25.4258,9.81055 -4.5609,0.57188 -12.9183,1.03906 -18.5703,1.03906 h -10.2754 v -49 z"
       style="opacity:1;fill:#000000;stroke-width:0.999999"
       id="path64" />
    <path
       transform="scale(0.26458333)"
       d="m 421.88086,549.84961 -0.26172,77.6582 c -0.14438,42.71218 -0.0409,77.88135 0.23047,78.15235 h 0.002 c 0.2713,0.27099 16.2463,0.30757 35.5,0.0801 31.86044,-0.37659 35.7539,-0.60876 43.32422,-2.57812 24.21154,-6.29855 44.65304,-22.13959 54.61524,-42.32227 5.60341,-11.35215 7.53125,-20.01463 7.53125,-33.83984 0,-13.76391 -1.92486,-22.48287 -7.42774,-33.63281 -9.66312,-19.57939 -28.05607,-34.18498 -51.03711,-40.5293 -7.44242,-2.05459 -10.59585,-2.23558 -45.23828,-2.59766 z m 33.97656,28.89453 16.75,0.50391 c 23.81643,0.71599 32.48825,3.90952 44.17969,16.27148 13.97885,14.7806 16.58585,37.67379 6.38477,56.07227 -5.84641,10.54443 -16.64045,18.97017 -29.31446,22.88281 -3.74804,1.15706 -10.67632,1.87476 -21.75,2.25195 l -16.25,0.55469 v -49.26953 z"
       style="opacity:1;fill:#000000;stroke-width:0.999999"
       id="path54" />
    <path
       id="path62"
       transform="scale(0.26458333)"
       d="m 1309.8574,550 v 78.5 78.5 h 55 55 V 691.5 676 h -38 -38 v -63 -63 h -17 z"
       style="opacity:1;fill:#000000;stroke-width:0.999999" />
    <path
       id="path60"
       transform="scale(0.26458333)"
       d="m 777.2832,550 c -14.79976,0 -18.42578,0.26553 -18.42578,1.34961 0,0.7423 11.70001,35.90106 26,78.13086 14.3,42.22979 26,76.94743 26,77.15039 0,0.20296 7.7724,0.36914 17.27149,0.36914 h 17.26953 l 10.40039,-34.99609 c 5.7199,-19.24774 10.52668,-34.86981 10.68164,-34.71485 0.15488,0.15493 5.21523,15.79075 11.24414,34.7461 L 888.68555,706.5 h 17.29687 17.29688 l 25.73828,-77 c 14.1555,-42.35002 25.7626,-77.5625 25.78906,-78.25 0.039,-0.95407 -4.08167,-1.25 -17.41406,-1.25 h -17.46485 l -2.90039,9.27539 c -11.63478,37.22154 -29.61753,93.34876 -30.09375,93.92578 -0.4738,0.57411 -10.14379,-29.30626 -30.88867,-95.45117 L 873.61523,550 h -16.98632 c -13.15382,0 -16.88716,0.28203 -16.55079,1.25 0.2388,0.6875 3.03469,9.62262 6.2129,19.85547 l 5.77734,18.60547 -3.52344,11.39453 c -1.93833,6.26714 -6.56294,21.29456 -10.27734,33.39453 -3.71429,12.10001 -7.03982,22.34007 -7.38867,22.75586 -0.34882,0.41579 -5.2521,-13.7592 -10.89649,-31.5 C 814.33804,608.0151 806.56796,583.71251 802.71484,571.75 L 795.70898,550 Z"
       style="opacity:1;fill:#000000;stroke-width:0.999999" />
    <path
       transform="scale(0.26458333)"
       d="M 1099.8574,411 V 465.00977 498 519.02148 h 28 61.0703 V 498 h -61.0703 V 454.5 411 Z"
       style="opacity:1;fill:#000000;stroke-width:0.999999"
       id="path46" />
    <path
       id="path40"
       transform="scale(0.26458333)"
       d="m 559.85742,411 v 54 54 h 46.5 46.5 V 508.5 498 h -32.5 -32.5 v -12 -12 h 29 29 v -10 -10 h -29 -29 v -11.52734 -11.52735 l 31.5,0.27735 31.5,0.27734 V 421.25 411 h -45.5 z"
       style="opacity:1;fill:#000000;stroke-width:0.999999" />
    <path
       transform="scale(0.26458333)"
       d="M 1175.7852,410.98242 V 431 h 42.0722 v 44 44 h 28 v -88 h 41 v -10.00781 -10.00977 z"
       style="opacity:1;fill:#000000;stroke-width:0.999999"
       id="path36" />
    <path
       transform="scale(0.26458333)"
       d="m 768.85742,410.93945 v 35.06446 35.06445 l -7.38476,-8.78516 C 757.41084,467.45202 743.32813,451.79999 730.17969,437.5 l -23.90625,-26 h -13.95703 -13.95899 l -0.30469,3.63672 c -0.19604,2.34826 0.42273,4.82938 1.7461,7 1.98939,3.26286 2.05091,4.74735 2.05469,50.11328 l 0.004,46.75 h 25 v -35.58398 -35.58204 l 5.4375,6.63477 c 2.99067,3.64857 17.27815,19.66736 31.75,35.59766 L 770.33008,519 h 24.02734 v -54 -53.5 l -12.75,-0.2793 z"
       style="opacity:1;fill:#000000;stroke-width:0.999999"
       id="path34" />
    <path
       transform="scale(0.26458333)"
       d="m 108.22656,340.93164 c -34.013369,-0.0675 -76.523763,0.30946 -80.572263,0.99024 -7.27664,1.22357 -8.901021,2.13061 -13.087891,7.32617 -10.3384892,12.82918 -78.640611,130.04495 -106.08789,182.06054 -18.275766,34.63461 -39.026836,76.04477 -40.630856,81.08203 -0.74444,2.3381 -1.04062,6.6629 -0.74219,10.83399 0.46131,6.44734 1.40351,8.77295 13.20703,32.60937 28.030598,56.60591 66.603597,125.83418 112.3671875,201.66602 16.8916099,27.98997 19.3972055,31.85167 23.5722655,36.33203 4.7097,5.0541 6.149429,5.52744 19.105469,6.2793 14.139979,0.82053 116.435018,0.19052 121.439458,-0.74805 6.5817,-1.23439 11.2667,-7.72229 38.20312,-52.87695 C 244.38052,763.70764 270.65045,716.36949 302.36914,653 c 12.55359,-25.08026 13.96375,-29.9658 11.40234,-39.5 -1.69666,-6.3154 -31.04232,-64.2592 -53.68359,-106 -21.61989,-39.85776 -84.15507,-146.04251 -92.57031,-157.18359 -4.30449,-5.69881 -8.76728,-7.94442 -17.38867,-8.75391 -4.14501,-0.38918 -21.49432,-0.59036 -41.90235,-0.63086 z M 145.93945,363 h 2.92774 l -9.38477,18.75 c -16.54811,33.0627 -39.653731,84.21286 -39.865232,88.25 -0.04325,0.82552 4.955242,10.94999 11.107422,22.5 21.94121,41.19209 58.59077,115.61944 61.16601,124.21484 1.80961,6.03999 0.52099,9.28673 -21.02539,53.00196 -42.10705,85.4307 -104.86978,201.88272 -111.703121,207.25781 -2.603058,2.0476 -6.304687,2.7382 -6.304687,1.17578 0,-0.46734 6.245817,-13.62985 13.880859,-29.25 13.160788,-26.92509 23.50007,-49.57823 31.576172,-69.18555 l 3.619141,-8.78515 -12.601563,-23.71485 C 56.087901,722.28833 21.363119,652.69991 13.480469,635.28906 7.2105785,621.44038 7.279515,619.30055 14.490234,603.69141 41.652144,544.89367 129.27311,379.18368 139.68555,366.91992 142.15525,364.01111 143.76722,363 145.93945,363 Z"
       style="opacity:1;fill:#000000;stroke-width:0.999999"
       id="path24" />
    <path
       transform="scale(0.26458333)"
       d="M 758.24805,550.31836 810.98047,707.14453 845.39844,707 866.52734,635.99805 888.68555,706.5 H 923.2793 L 975.16602,550.31836 H 939.82617 L 907.36328,652.85938 873.71875,550.31836 h -34.20313 l 12.55274,39.39258 -21.63477,68.41797 -34.62304,-107.81055 z"
       style="opacity:1;fill:#000000;stroke:none;stroke-width:0.999999px;stroke-linecap:butt;stroke-linejoin:miter;stroke-opacity:1"
       id="path158" />
    <path
       sodipodi:nodetypes="cccccccccccccc"
       transform="scale(0.26458333)"
       d="m 955.27873,411.00195 -0.93148,7.04604 3.86564,7.12582 v 55.11721 c 0.11048,23.01879 17.07498,39.43001 55.45901,39.76757 38.3831,-0.33758 55.3466,-16.74912 55.457,-39.76757 v -69.28907 h -27.3984 v 69.28907 0 c -1.0609,12.21429 -10.3103,16.65091 -28.0605,17.75 -17.75068,-1.0991 -26.99961,-5.53551 -28.06057,-17.75 v -69.28907 z"
       style="opacity:1;fill:#000000;stroke:none;stroke-width:5.66929;stroke-linecap:round;paint-order:stroke fill markers"
       id="rect227" />
    <text
       transform="scale(0.98571279,1.0144943)"
       id="text300"
       y="197.62883"
       x="164.50052"
       style="font-style:normal;font-variant:normal;font-weight:bold;font-stretch:normal;font-size:5.07981px;line-height:1.25;font-family:Arial;-inkscape-font-specification:'Arial Bold';opacity:1;fill:#000000;fill-opacity:1;stroke:none;stroke-width:0.126996"
       xml:space="preserve"><tspan
         style="font-style:normal;font-variant:normal;font-weight:bold;font-stretch:normal;font-family:Arial;-inkscape-font-specification:'Arial Bold';fill:#000000;stroke-width:0.126996"
         y="197.62883"
         x="164.50052"
         id="tspan298"
         sodipodi:role="line">R</tspan></text>
    <path
       transform="scale(0.26458333)"
       d="m 618.89844,737.56641 c -7.39631,0.0544 -12.36524,4.50137 -12.36524,12.04297 0,0.0265 -1.5e-4,0.61428 0,1.18945 -1.5e-4,0.5752 0,1.16356 0,1.18945 0,7.54159 4.96893,11.98858 12.36524,12.04297 h 1.13867 c 0.008,0 0.0118,8e-5 0.0156,0 0.56542,1.5e-4 1.14152,0 1.16797,0 7.41366,0 11.78656,-4.86436 11.83985,-12.10352 v -1.11328 -0.0156 -0.0156 -1.11328 c -0.0533,-7.23915 -4.42619,-12.10351 -11.83985,-12.10351 -0.0264,0 -0.60255,-1.5e-4 -1.16797,0 -0.004,-4e-5 -0.008,0 -0.0156,0 z m 0.16797,2.47461 0.92578,0.002 h 0.0117 c 0.45966,-1.1e-4 0.92654,0 0.94921,0 6.02707,0 9.58154,3.95466 9.625,9.83984 v 0.90625 0.01 0.0117 0.90625 c -0.0434,5.88521 -3.59793,9.83984 -9.625,9.83984 -0.0215,0 -0.48955,1.5e-4 -0.94921,0 -0.004,8e-5 -0.004,0 -0.0117,0 h -0.92578 c -6.01293,-0.0442 -10.05274,-3.65994 -10.05274,-9.79102 0,-0.0211 -1.1e-4,-0.49915 0,-0.96679 -1.1e-4,-0.46757 0,-0.94412 0,-0.9668 0,-6.13107 4.03981,-9.74679 10.05274,-9.79101 z"
       style="opacity:1;fill:#000000;stroke:none;stroke-width:12.7555;stroke-linecap:round;paint-order:stroke fill markers"
       id="path302" />
  </g>
</svg>
